<svg width="152" height="158" viewBox="0 0 152 158" fill="none" xmlns="http://www.w3.org/2000/svg">
<path d="M75.8535 0L92.7619 54.5877L147.479 54.5877L103.212 88.3247L120.12 142.912L75.8535 109.175L31.5866 142.912L48.495 88.3247L4.22811 54.5877L58.945 54.5877L75.8535 0Z" fill="#8C8AD9"/>
<path d="M40.7795 127.464C38.6088 127.464 36.6728 126.848 34.9715 125.616C33.3288 124.443 32.5075 122.419 32.5075 119.544C32.5075 117.667 32.8595 115.819 33.5635 114C34.3261 112.24 35.1768 110.656 36.1155 109.248C37.1128 107.899 37.9928 106.901 38.7555 106.256C38.9901 106.08 39.1661 106.08 39.2835 106.256C39.4008 106.432 39.4008 106.579 39.2835 106.696C38.5795 107.635 37.8755 108.837 37.1715 110.304C36.4675 111.771 35.8808 113.325 35.4115 114.968C34.9421 116.611 34.7075 118.165 34.7075 119.632C34.7075 119.925 34.7075 120.189 34.7075 120.424C34.7661 120.717 34.8248 121.011 34.8835 121.304C35.1768 123.123 35.7928 124.413 36.7315 125.176C37.6701 125.939 38.7555 126.32 39.9875 126.32C41.2781 126.32 42.5981 125.968 43.9475 125.264C45.3555 124.56 46.5875 123.739 47.6435 122.8C49.2861 121.275 51.0168 119.104 52.8355 116.288C54.6541 113.531 56.3848 110.48 58.0275 107.136C59.7288 103.792 61.2248 100.507 62.5155 97.28C63.8061 93.9947 64.7155 91.0907 65.2435 88.568C64.1288 90.0347 62.6328 91.5307 60.7555 93.056C58.8781 94.5227 57.0301 95.8427 55.2115 97.016C53.4515 98.1893 52.1021 99.0107 51.1635 99.48C48.4648 100.829 45.9715 101.827 43.6835 102.472C41.3955 103.059 39.3128 103.352 37.4355 103.352C33.7395 103.352 30.8648 102.325 28.8115 100.272C26.8168 98.2187 25.8195 95.5787 25.8195 92.352C25.8195 89.7707 26.4941 86.9547 27.8435 83.904C29.1928 80.7947 31.3048 77.656 34.1795 74.488C36.8195 71.5547 39.8408 68.8853 43.2435 66.48C46.7048 64.016 50.4008 62.0507 54.3315 60.584C58.3208 59.1173 62.4275 58.384 66.6515 58.384C68.8221 58.384 70.3475 58.8533 71.2275 59.792C71.6968 59.2053 72.0488 58.5893 72.2835 57.944C72.5181 57.2987 72.8408 56.8293 73.2515 56.536C73.7208 56.1253 74.2195 55.92 74.7475 55.92C75.6275 55.92 76.0675 56.2427 76.0675 56.888C76.0675 57.1813 75.9501 57.4747 75.7155 57.768C73.8381 60.1733 72.2835 62.52 71.0515 64.808C69.8781 67.096 68.7928 69.6187 67.7955 72.376C67.6195 72.8453 67.3261 73.08 66.9155 73.08C66.6808 73.08 66.4755 72.992 66.2995 72.816C66.1235 72.5813 66.1235 72.288 66.2995 71.936C66.5341 71.408 66.8568 70.6453 67.2675 69.648C67.6781 68.592 68.1475 67.5067 68.6755 66.392C69.2035 65.16 69.4675 64.1627 69.4675 63.4C69.4675 62.0507 68.9101 61.1707 67.7955 60.76C66.6808 60.3493 65.3315 60.144 63.7475 60.144C60.1101 60.144 56.5901 60.9653 53.1875 62.608C49.8435 64.192 46.7635 66.2453 43.9475 68.768C41.1901 71.2907 38.8435 73.872 36.9075 76.512C34.9128 79.328 33.4461 81.9387 32.5075 84.344C31.6275 86.7493 31.1875 88.8907 31.1875 90.768C31.1875 93.8187 32.1555 96.1947 34.0915 97.896C36.0275 99.5387 38.5208 100.36 41.5715 100.36C44.3875 100.36 47.4675 99.5973 50.8115 98.072C51.6915 97.6613 52.8648 96.9867 54.3315 96.048C55.7981 95.0507 57.2941 93.936 58.8195 92.704C60.4035 91.472 61.7821 90.1813 62.9555 88.832C64.1288 87.4827 64.8328 86.2213 65.0675 85.048C64.4221 84.8133 63.3955 84.696 61.9875 84.696C59.7581 84.696 57.4701 84.9307 55.1235 85.4C54.4781 85.5173 54.0381 85.7227 53.8035 86.016C53.5688 86.2507 53.4515 86.5147 53.4515 86.808C53.4515 87.1013 53.5395 87.3947 53.7155 87.688C53.8915 87.9813 54.0381 88.216 54.1555 88.392V88.48C54.1555 88.656 54.0968 88.8613 53.9795 89.096C53.8621 89.272 53.7448 89.272 53.6275 89.096C53.2168 88.8027 52.6888 88.2747 52.0435 87.512C51.4568 86.6907 50.9875 85.9867 50.6355 85.4C50.3421 84.9307 50.1955 84.52 50.1955 84.168C50.1955 83.288 50.8115 82.848 52.0435 82.848C52.3955 82.848 53.0115 82.8773 53.8915 82.936C54.8301 82.936 55.8861 82.936 57.0595 82.936C58.8195 82.936 60.7555 82.936 62.8675 82.936C65.0381 82.8773 67.0915 82.848 69.0275 82.848C70.9635 82.7893 72.5475 82.76 73.7795 82.76C75.0701 82.7013 75.7155 82.672 75.7155 82.672C75.9501 82.7307 76.0381 82.8773 75.9795 83.112C75.9795 83.3467 75.9208 83.552 75.8035 83.728C75.1581 83.728 74.4248 83.7573 73.6035 83.816C72.8408 83.816 72.0195 84.168 71.1395 84.872C70.3181 85.5173 69.4675 86.8373 68.5875 88.832C67.2968 91.7653 66.0355 94.992 64.8035 98.512C63.6301 102.032 62.3101 105.523 60.8435 108.984C59.4355 112.504 57.7048 115.701 55.6515 118.576C53.5981 121.509 51.0755 123.827 48.0835 125.528C47.0861 126.115 45.9421 126.584 44.6515 126.936C43.3608 127.288 42.0701 127.464 40.7795 127.464ZM84.5636 104.144C83.8009 104.144 83.0089 103.997 82.1876 103.704C81.3663 103.411 80.5156 102.941 79.6356 102.296C78.2863 101.24 77.2009 99.8027 76.3796 97.984C75.5583 96.1653 74.9716 94.3173 74.6196 92.44C74.3263 90.504 74.2089 88.9493 74.2676 87.776C74.3263 87.4827 74.5023 87.248 74.7956 87.072C75.0889 86.896 75.1769 87.0427 75.0596 87.512C75.2356 89.096 75.5876 90.856 76.1156 92.792C76.7023 94.6693 77.5823 96.2827 78.7556 97.632C79.9876 98.9813 81.5716 99.656 83.5076 99.656C84.7396 99.656 85.9129 99.4213 87.0276 98.952C88.2009 98.424 89.2863 97.544 90.2836 96.312C91.8089 94.4933 93.2169 92.264 94.5076 89.624C95.7983 86.9253 96.9423 84.2267 97.9396 81.528L97.3236 80.736C96.6196 79.7387 95.6809 79.3867 94.5076 79.68C94.2729 79.7387 94.3903 79.5627 94.8596 79.152C95.3876 78.7413 95.9743 78.3013 96.6196 77.832C97.2649 77.304 97.6463 77.0107 97.7636 76.952C98.1156 76.952 98.5849 77.304 99.1716 78.008C99.8169 76.1307 100.374 74.4293 100.844 72.904C101.372 71.3787 101.782 70.1467 102.076 69.208C102.252 68.68 102.545 67.8 102.956 66.568C103.366 65.336 103.572 64.4267 103.572 63.84C103.572 62.3733 103.689 61.288 103.924 60.584C102.105 60.5253 100.345 60.5547 98.6436 60.672C97.0009 60.7893 95.5929 60.936 94.4196 61.112C91.8969 61.464 89.4916 62.168 87.2036 63.224C84.9156 64.2213 83.0383 65.4827 81.5716 67.008C80.1636 68.5333 79.4596 70.2933 79.4596 72.288C79.4596 73.52 79.8116 74.84 80.5156 76.248C81.2196 77.5973 82.3929 79.0347 84.0356 80.56C84.6809 81.1467 85.2969 81.704 85.8836 82.232C86.5289 82.76 87.0863 83.2587 87.5556 83.728C87.6729 83.8453 87.6436 83.992 87.4676 84.168C87.3503 84.2853 87.2329 84.3147 87.1156 84.256C86.5289 83.904 85.6783 83.376 84.5636 82.672C83.4489 81.968 82.3049 81.0587 81.1316 79.944C80.0169 78.7707 79.0489 77.4507 78.2276 75.984C77.4063 74.4587 76.9956 72.728 76.9956 70.792C76.9956 68.328 77.7876 66.304 79.3716 64.72C81.0143 63.136 83.0969 61.904 85.6196 61.024C88.2009 60.0853 90.9583 59.44 93.8916 59.088C96.8249 58.6773 99.5823 58.472 102.164 58.472C102.692 58.472 103.19 58.472 103.66 58.472C104.188 58.472 104.686 58.5013 105.156 58.56L107.62 56.536C108.03 56.184 108.412 55.832 108.764 55.48C109.174 55.128 109.585 54.688 109.996 54.16C110.524 53.808 110.788 53.9253 110.788 54.512C110.788 54.9813 110.612 55.6267 110.26 56.448C109.966 57.2693 109.673 57.8267 109.38 58.12L108.588 58.824L111.316 59.176C116.126 59.7627 119.558 61.112 121.612 63.224C123.665 65.336 124.692 67.5947 124.692 70C124.692 71.9947 124.193 73.9013 123.196 75.72C122.198 77.48 120.878 79.0347 119.236 80.384C117.652 81.6747 115.892 82.7013 113.956 83.464C112.02 84.2267 110.113 84.608 108.236 84.608C107.473 84.608 106.681 84.5493 105.86 84.432C105.097 84.256 104.393 83.992 103.748 83.64C105.273 85.6347 106.886 87.776 108.588 90.064C110.348 92.352 112.049 94.4347 113.692 96.312C115.334 98.1307 116.801 99.4213 118.092 100.184C118.913 100.595 119.646 100.8 120.292 100.8C120.878 100.8 121.377 100.624 121.788 100.272C122.198 99.8613 122.404 99.1867 122.404 98.248C122.404 97.016 122.11 95.696 121.524 94.288C120.937 92.8213 120.321 91.5013 119.676 90.328C119.558 90.0933 119.5 89.9467 119.5 89.888C119.5 89.712 119.558 89.624 119.676 89.624C119.969 89.624 120.204 89.8 120.38 90.152C120.908 90.9147 121.406 91.824 121.876 92.88C122.345 93.8773 122.726 94.816 123.02 95.696C123.43 96.6933 123.636 97.6907 123.636 98.688C123.636 100.096 123.196 101.269 122.316 102.208C121.494 103.088 120.409 103.528 119.06 103.528C118.004 103.528 116.918 103.235 115.804 102.648C113.926 101.651 112.049 100.067 110.172 97.896C108.353 95.6667 106.534 93.232 104.716 90.592C102.956 87.952 101.166 85.488 99.3476 83.2C98.1156 86.6613 96.7956 89.976 95.3876 93.144C94.7423 94.6693 93.8916 96.312 92.8356 98.072C91.8383 99.7733 90.6356 101.211 89.2276 102.384C87.8783 103.557 86.3236 104.144 84.5636 104.144ZM108.06 83.552C110.23 83.552 112.284 82.8773 114.22 81.528C116.214 80.1787 117.828 78.4773 119.06 76.424C120.292 74.3707 120.908 72.3173 120.908 70.264C120.849 68.2107 120.028 66.3333 118.444 64.632C116.86 62.9307 114.19 61.7573 110.436 61.112C109.966 60.9947 109.468 60.936 108.94 60.936C108.47 60.8773 107.972 60.8187 107.444 60.76L106.388 63.312C105.918 64.4853 105.42 65.8347 104.892 67.36C104.422 68.8267 103.836 70.4987 103.132 72.376C102.78 73.3147 102.398 74.4 101.988 75.632C101.577 76.864 101.108 78.184 100.58 79.592L101.9 81.264L102.252 81.44C103.19 82.2027 104.129 82.76 105.068 83.112C106.065 83.4053 107.062 83.552 108.06 83.552Z" fill="white"/>
</svg>
