<svg width="257" height="191" viewBox="0 0 257 191" fill="none" xmlns="http://www.w3.org/2000/svg">
<path d="M98.6506 179.416C95.5146 179.416 92.6346 178.952 90.0106 178.024C87.4186 177.096 85.3226 175.736 83.7226 173.944C82.1226 172.12 81.2426 169.88 81.0826 167.224C81.0186 166.136 81.1946 164.936 81.6106 163.624C82.0266 162.312 82.6026 161.016 83.3386 159.736C84.1066 158.424 85.0026 157.256 86.0266 156.232C87.0826 155.176 88.2026 154.376 89.3866 153.832C89.4826 153.768 89.6266 153.72 89.8186 153.688C90.0426 153.656 90.2026 153.64 90.2986 153.64C90.4906 153.64 90.5866 153.688 90.5866 153.784C90.5866 153.944 90.3466 154.2 89.8666 154.552C88.5226 155.608 87.4186 156.824 86.5546 158.2C85.6586 159.576 84.9866 161.048 84.5386 162.616C84.0906 164.184 83.8666 165.768 83.8666 167.368C83.8666 169.256 84.2666 170.888 85.0666 172.264C85.8986 173.608 87.0026 174.712 88.3786 175.576C89.7546 176.472 91.3226 177.128 93.0826 177.544C94.8426 177.96 96.6826 178.168 98.6026 178.168C100.747 178.168 102.859 177.928 104.939 177.448C107.051 176.968 108.971 176.28 110.699 175.384C113.355 173.976 115.451 172.232 116.987 170.152C118.555 168.072 119.339 166.008 119.339 163.96C119.339 162.872 119.099 161.832 118.619 160.84C118.171 159.848 117.435 158.952 116.411 158.152C115.643 157.544 114.699 156.968 113.579 156.424C112.491 155.88 111.323 155.352 110.075 154.84C108.859 154.328 107.659 153.816 106.475 153.304C105.291 152.76 104.251 152.184 103.355 151.576C102.075 150.712 101.131 149.784 100.523 148.792C99.9466 147.8 99.6586 146.808 99.6586 145.816C99.6586 144.632 99.9946 143.48 100.667 142.36C101.371 141.24 102.315 140.232 103.499 139.336C104.715 138.408 106.075 137.688 107.579 137.176C108.891 136.728 110.315 136.376 111.851 136.12C113.419 135.864 114.955 135.736 116.459 135.736C117.707 135.736 118.891 135.832 120.011 136.024C121.163 136.184 122.171 136.488 123.035 136.936C124.123 137.448 124.955 138.136 125.531 139C126.107 139.832 126.395 140.712 126.395 141.64C126.395 142.92 125.819 144.04 124.667 145C124.251 145.32 123.787 145.624 123.275 145.912C122.763 146.168 122.155 146.392 121.451 146.584C121.323 146.616 121.179 146.632 121.019 146.632C120.635 146.632 120.443 146.52 120.443 146.296C120.443 146.168 120.539 146.04 120.731 145.912C120.955 145.752 121.275 145.656 121.691 145.624C122.651 145.496 123.371 145.128 123.851 144.52C124.363 143.912 124.619 143.208 124.619 142.408C124.619 141.576 124.331 140.76 123.755 139.96C123.211 139.128 122.363 138.44 121.211 137.896C120.059 137.32 118.587 137.032 116.795 137.032C115.771 137.032 114.635 137.144 113.387 137.368C112.171 137.592 110.843 137.96 109.403 138.472C107.643 139.08 106.171 139.976 104.987 141.16C103.835 142.344 103.259 143.608 103.259 144.952C103.259 145.784 103.531 146.632 104.075 147.496C104.651 148.328 105.563 149.128 106.811 149.896C107.867 150.536 109.067 151.176 110.411 151.816C111.755 152.424 113.115 153.048 114.491 153.688C115.867 154.296 117.115 154.952 118.235 155.656C119.995 156.744 121.259 157.912 122.027 159.16C122.795 160.408 123.179 161.688 123.179 163C123.179 164.536 122.715 166.088 121.787 167.656C120.891 169.192 119.707 170.648 118.235 172.024C116.763 173.368 115.147 174.568 113.387 175.624C111.339 176.84 109.019 177.768 106.427 178.408C103.867 179.08 101.275 179.416 98.6506 179.416ZM129.767 175C128.871 175 128.071 174.696 127.367 174.088C126.663 173.448 126.311 172.456 126.311 171.112C126.311 170.056 126.503 168.76 126.887 167.224C127.303 165.656 127.799 164.04 128.375 162.376C128.983 160.68 129.575 159.144 130.151 157.768H127.607C127.383 157.768 127.271 157.608 127.271 157.288C127.271 157.128 127.303 156.984 127.367 156.856C127.463 156.728 127.591 156.664 127.751 156.664H130.631C131.175 155.448 131.751 154.264 132.359 153.112C132.967 151.96 133.559 150.872 134.135 149.848C134.871 148.568 135.655 147.608 136.487 146.968C137.319 146.328 138.039 146.008 138.647 146.008C139.127 146.008 139.527 146.2 139.847 146.584C140.167 146.936 140.327 147.48 140.327 148.216C140.327 148.664 140.231 149.288 140.039 150.088C139.847 150.856 139.543 151.672 139.127 152.536C138.903 152.984 138.583 153.624 138.167 154.456C137.783 155.288 137.399 156.024 137.015 156.664H139.319C139.543 156.664 139.655 156.824 139.655 157.144C139.655 157.272 139.623 157.416 139.559 157.576C139.495 157.704 139.399 157.768 139.271 157.768H136.439C135.639 159.144 134.727 160.488 133.703 161.8C132.679 163.112 131.463 164.424 130.055 165.736C129.959 166.024 129.831 166.44 129.671 166.984C129.543 167.528 129.415 168.088 129.287 168.664C129.191 169.208 129.095 169.672 128.999 170.056C128.935 170.44 128.903 170.632 128.903 170.632C128.807 171.048 128.759 171.432 128.759 171.784C128.759 172.456 128.919 172.952 129.239 173.272C129.559 173.56 129.927 173.704 130.343 173.704C130.599 173.704 130.855 173.672 131.111 173.608C131.367 173.512 131.655 173.352 131.975 173.128C133.095 172.328 134.071 171.24 134.903 169.864C135.767 168.488 136.519 167.16 137.159 165.88C137.351 165.496 137.543 165.304 137.735 165.304C137.863 165.304 137.927 165.4 137.927 165.592C137.927 165.688 137.879 165.864 137.783 166.12C137.079 167.592 136.487 168.776 136.007 169.672C135.527 170.568 135.063 171.32 134.615 171.928C134.167 172.504 133.639 173.08 133.031 173.656C132.583 174.104 132.071 174.44 131.495 174.664C130.919 174.888 130.343 175 129.767 175ZM133.559 156.664H136.007C136.455 155.832 136.871 155.016 137.255 154.216C137.671 153.416 138.039 152.616 138.359 151.816C138.583 151.304 138.775 150.728 138.935 150.088C139.095 149.448 139.175 148.952 139.175 148.6C139.175 148.12 139.063 147.88 138.839 147.88C138.679 147.88 138.439 148.024 138.119 148.312C137.831 148.568 137.463 149.016 137.015 149.656C136.439 150.456 135.863 151.496 135.287 152.776C134.743 154.024 134.167 155.32 133.559 156.664ZM130.439 164.2C131.367 163.24 132.231 162.216 133.031 161.128C133.863 160.04 134.631 158.92 135.335 157.768H133.079C132.567 158.952 132.087 160.104 131.639 161.224C131.191 162.344 130.791 163.336 130.439 164.2ZM130.591 190.312C128.927 190.312 127.743 189.976 127.039 189.304C126.335 188.664 125.983 187.896 125.983 187C125.983 186.52 126.047 186.104 126.175 185.752C126.303 185.4 126.495 184.952 126.751 184.408C127.199 183.48 127.823 182.68 128.623 182.008C129.423 181.336 130.287 180.792 131.215 180.376C132.879 179.608 134.767 178.984 136.879 178.504C139.023 178.024 141.071 177.496 143.023 176.92C143.631 175.864 144.191 174.664 144.703 173.32C145.215 171.944 145.679 170.616 146.095 169.336C146.511 168.024 146.847 166.952 147.103 166.12C146.719 166.824 146.223 167.688 145.615 168.712C145.039 169.704 144.383 170.68 143.647 171.64C142.911 172.6 142.111 173.4 141.247 174.04C140.415 174.68 139.535 175 138.607 175C138.255 175 137.823 174.92 137.311 174.76C136.831 174.6 136.399 174.312 136.015 173.896C135.663 173.448 135.487 172.792 135.487 171.928C135.487 171.096 135.679 170.296 136.063 169.528C136.479 168.728 136.863 167.96 137.215 167.224C137.119 167.224 137.007 167.192 136.879 167.128C136.783 167.064 136.735 166.968 136.735 166.84C136.735 166.712 136.767 166.584 136.831 166.456C136.959 166.2 137.103 165.928 137.263 165.64C137.423 165.352 137.567 165.048 137.695 164.728C138.175 163.736 138.655 162.792 139.135 161.896C139.615 160.968 140.031 160.152 140.383 159.448C140.735 158.744 141.343 158.392 142.207 158.392H145.183C144.959 158.584 144.671 158.808 144.319 159.064C143.999 159.288 143.695 159.64 143.407 160.12C142.543 161.592 141.791 163.016 141.151 164.392C140.511 165.736 139.823 167.176 139.087 168.712C138.735 169.448 138.479 170.12 138.319 170.728C138.159 171.336 138.079 171.864 138.079 172.312C138.079 173.368 138.431 173.896 139.135 173.896C139.903 173.896 140.831 173.272 141.919 172.024C142.815 170.968 143.711 169.72 144.607 168.28C145.535 166.808 146.415 165.304 147.247 163.768C148.111 162.2 148.863 160.76 149.503 159.448C149.855 158.744 150.479 158.392 151.375 158.392H154.015C153.087 159.032 152.367 159.864 151.855 160.888C151.375 161.912 150.831 163.224 150.223 164.824C149.551 166.584 148.911 168.408 148.303 170.296C147.727 172.152 147.071 174.024 146.335 175.912C147.391 175.56 148.575 175.016 149.887 174.28C151.231 173.544 152.367 172.488 153.295 171.112C154.031 170.024 154.655 168.984 155.167 167.992C155.711 166.968 156.095 166.232 156.319 165.784C156.447 165.464 156.623 165.304 156.847 165.304C157.071 165.304 157.183 165.448 157.183 165.736C157.183 165.896 157.135 166.072 157.039 166.264C156.207 167.928 155.455 169.336 154.783 170.488C154.143 171.608 153.423 172.584 152.623 173.416C151.855 174.216 150.911 174.92 149.791 175.528C148.671 176.168 147.247 176.808 145.519 177.448C144.751 178.824 143.871 180.248 142.879 181.72C141.919 183.224 140.815 184.616 139.567 185.896C138.351 187.208 136.991 188.264 135.487 189.064C134.015 189.896 132.383 190.312 130.591 190.312ZM129.439 189.352C130.495 189.352 131.583 189.032 132.703 188.392C133.823 187.752 134.911 186.936 135.967 185.944C137.023 184.984 137.983 183.992 138.847 182.968C139.743 181.976 140.463 181.096 141.007 180.328C141.167 180.104 141.343 179.816 141.535 179.464C141.727 179.112 141.919 178.776 142.111 178.456C140.543 178.872 138.815 179.32 136.927 179.8C135.071 180.312 133.455 180.872 132.079 181.48C130.543 182.12 129.343 183.032 128.479 184.216C127.583 185.4 127.135 186.456 127.135 187.384C127.135 187.96 127.327 188.424 127.711 188.776C128.063 189.16 128.639 189.352 129.439 189.352ZM158.736 175.144C157.392 175.144 156.48 174.792 156 174.088C155.52 173.352 155.28 172.488 155.28 171.496C155.28 170.472 155.424 169.416 155.712 168.328C156 167.24 156.256 166.328 156.48 165.592C156.992 163.8 157.632 161.896 158.4 159.88C159.2 157.832 160.064 155.832 160.992 153.88C161.952 151.896 162.896 150.12 163.824 148.552C164.56 147.304 165.344 146.376 166.176 145.768C167.04 145.128 167.792 144.808 168.432 144.808C168.944 144.808 169.344 145 169.632 145.384C169.952 145.736 170.112 146.28 170.112 147.016C170.112 147.528 170.016 148.136 169.824 148.84C169.664 149.544 169.376 150.344 168.96 151.24C167.84 153.736 166.496 156.232 164.928 158.728C163.392 161.224 161.44 163.56 159.072 165.736C158.944 166.152 158.768 166.648 158.544 167.224C158.352 167.768 158.176 168.328 158.016 168.904C157.824 169.768 157.728 170.504 157.728 171.112C157.728 172.104 157.92 172.856 158.304 173.368C158.72 173.848 159.216 174.088 159.792 174.088C160.304 174.088 160.848 173.912 161.424 173.56C162 173.176 162.544 172.632 163.056 171.928C163.824 170.808 164.512 169.672 165.12 168.52C165.76 167.336 166.24 166.424 166.56 165.784C166.752 165.432 166.96 165.256 167.184 165.256C167.344 165.256 167.424 165.352 167.424 165.544C167.424 165.704 167.376 165.88 167.28 166.072C166.992 166.712 166.608 167.544 166.128 168.568C165.68 169.56 165.104 170.568 164.4 171.592C163.728 172.584 162.912 173.432 161.952 174.136C161.024 174.808 159.952 175.144 158.736 175.144ZM159.456 164.2C160.608 163.016 161.728 161.656 162.816 160.12C163.904 158.552 164.912 156.936 165.84 155.272C166.8 153.576 167.6 151.976 168.24 150.472C168.464 149.992 168.64 149.464 168.768 148.888C168.928 148.312 169.008 147.832 169.008 147.448C169.008 147 168.896 146.776 168.672 146.776C168.544 146.776 168.352 146.904 168.096 147.16C167.84 147.384 167.504 147.784 167.088 148.36C166.48 149.16 165.808 150.248 165.072 151.624C164.368 153 163.648 154.472 162.912 156.04C162.176 157.608 161.504 159.128 160.896 160.6C160.288 162.04 159.808 163.24 159.456 164.2ZM169.963 175.192C168.779 175.192 167.707 174.808 166.747 174.04C165.819 173.272 165.355 172.104 165.355 170.536C165.355 169.096 165.707 167.56 166.411 165.928C167.115 164.264 168.011 162.808 169.099 161.56C170.027 160.472 171.067 159.576 172.219 158.872C173.371 158.168 174.459 157.816 175.483 157.816C176.187 157.816 176.795 158.008 177.307 158.392C177.851 158.808 178.123 159.4 178.123 160.168C178.123 160.968 177.819 161.848 177.211 162.808C176.603 163.768 175.739 164.664 174.619 165.496C174.139 165.848 173.531 166.184 172.795 166.504C172.059 166.824 171.323 167.096 170.587 167.32C169.851 167.512 169.243 167.608 168.763 167.608C168.603 167.992 168.443 168.504 168.283 169.144C168.155 169.784 168.091 170.44 168.091 171.112C168.091 171.912 168.251 172.632 168.571 173.272C168.891 173.912 169.483 174.232 170.347 174.232C171.403 174.232 172.363 173.928 173.227 173.32C174.091 172.712 174.859 171.96 175.531 171.064C176.203 170.136 176.763 169.208 177.211 168.28C177.691 167.352 178.075 166.568 178.363 165.928C178.555 165.48 178.811 165.256 179.131 165.256C179.291 165.256 179.371 165.336 179.371 165.496C179.371 165.624 179.323 165.784 179.227 165.976C178.779 166.936 178.299 167.96 177.787 169.048C177.275 170.104 176.667 171.112 175.963 172.072C175.259 173 174.411 173.752 173.419 174.328C172.459 174.904 171.307 175.192 169.963 175.192ZM169.099 166.744C169.547 166.744 170.299 166.584 171.355 166.264C172.411 165.912 173.371 165.368 174.235 164.632C175.067 163.896 175.707 163.096 176.155 162.232C176.603 161.336 176.827 160.584 176.827 159.976C176.827 159.272 176.571 158.92 176.059 158.92C175.675 158.92 175.147 159.176 174.475 159.688C173.803 160.2 172.971 161.064 171.979 162.28C171.371 163.048 170.795 163.88 170.251 164.776C169.707 165.672 169.323 166.328 169.099 166.744Z" fill="#8C8AD9"/>
<path d="M130.853 0L147.762 54.5877L202.479 54.5877L158.212 88.3247L175.12 142.912L130.853 109.175L86.5866 142.912L103.495 88.3247L59.2281 54.5877L113.945 54.5877L130.853 0Z" fill="#8C8AD9"/>
<path d="M95.7795 127.464C93.6088 127.464 91.6728 126.848 89.9715 125.616C88.3288 124.443 87.5075 122.419 87.5075 119.544C87.5075 117.667 87.8595 115.819 88.5635 114C89.3261 112.24 90.1768 110.656 91.1155 109.248C92.1128 107.899 92.9928 106.901 93.7555 106.256C93.9901 106.08 94.1661 106.08 94.2835 106.256C94.4008 106.432 94.4008 106.579 94.2835 106.696C93.5795 107.635 92.8755 108.837 92.1715 110.304C91.4675 111.771 90.8808 113.325 90.4115 114.968C89.9421 116.611 89.7075 118.165 89.7075 119.632C89.7075 119.925 89.7075 120.189 89.7075 120.424C89.7661 120.717 89.8248 121.011 89.8835 121.304C90.1768 123.123 90.7928 124.413 91.7315 125.176C92.6701 125.939 93.7555 126.32 94.9875 126.32C96.2781 126.32 97.5981 125.968 98.9475 125.264C100.355 124.56 101.587 123.739 102.643 122.8C104.286 121.275 106.017 119.104 107.835 116.288C109.654 113.531 111.385 110.48 113.027 107.136C114.729 103.792 116.225 100.507 117.515 97.28C118.806 93.9947 119.715 91.0907 120.243 88.568C119.129 90.0347 117.633 91.5307 115.755 93.056C113.878 94.5227 112.03 95.8427 110.211 97.016C108.451 98.1893 107.102 99.0107 106.163 99.48C103.465 100.829 100.971 101.827 98.6835 102.472C96.3955 103.059 94.3128 103.352 92.4355 103.352C88.7395 103.352 85.8648 102.325 83.8115 100.272C81.8168 98.2187 80.8195 95.5787 80.8195 92.352C80.8195 89.7707 81.4941 86.9547 82.8435 83.904C84.1928 80.7947 86.3048 77.656 89.1795 74.488C91.8195 71.5547 94.8408 68.8853 98.2435 66.48C101.705 64.016 105.401 62.0507 109.331 60.584C113.321 59.1173 117.427 58.384 121.651 58.384C123.822 58.384 125.347 58.8533 126.227 59.792C126.697 59.2053 127.049 58.5893 127.283 57.944C127.518 57.2987 127.841 56.8293 128.251 56.536C128.721 56.1253 129.219 55.92 129.747 55.92C130.627 55.92 131.067 56.2427 131.067 56.888C131.067 57.1813 130.95 57.4747 130.715 57.768C128.838 60.1733 127.283 62.52 126.051 64.808C124.878 67.096 123.793 69.6187 122.795 72.376C122.619 72.8453 122.326 73.08 121.915 73.08C121.681 73.08 121.475 72.992 121.299 72.816C121.123 72.5813 121.123 72.288 121.299 71.936C121.534 71.408 121.857 70.6453 122.267 69.648C122.678 68.592 123.147 67.5067 123.675 66.392C124.203 65.16 124.467 64.1627 124.467 63.4C124.467 62.0507 123.91 61.1707 122.795 60.76C121.681 60.3493 120.331 60.144 118.747 60.144C115.11 60.144 111.59 60.9653 108.187 62.608C104.843 64.192 101.763 66.2453 98.9475 68.768C96.1901 71.2907 93.8435 73.872 91.9075 76.512C89.9128 79.328 88.4461 81.9387 87.5075 84.344C86.6275 86.7493 86.1875 88.8907 86.1875 90.768C86.1875 93.8187 87.1555 96.1947 89.0915 97.896C91.0275 99.5387 93.5208 100.36 96.5715 100.36C99.3875 100.36 102.467 99.5973 105.811 98.072C106.691 97.6613 107.865 96.9867 109.331 96.048C110.798 95.0507 112.294 93.936 113.819 92.704C115.403 91.472 116.782 90.1813 117.955 88.832C119.129 87.4827 119.833 86.2213 120.067 85.048C119.422 84.8133 118.395 84.696 116.987 84.696C114.758 84.696 112.47 84.9307 110.123 85.4C109.478 85.5173 109.038 85.7227 108.803 86.016C108.569 86.2507 108.451 86.5147 108.451 86.808C108.451 87.1013 108.539 87.3947 108.715 87.688C108.891 87.9813 109.038 88.216 109.155 88.392V88.48C109.155 88.656 109.097 88.8613 108.979 89.096C108.862 89.272 108.745 89.272 108.627 89.096C108.217 88.8027 107.689 88.2747 107.043 87.512C106.457 86.6907 105.987 85.9867 105.635 85.4C105.342 84.9307 105.195 84.52 105.195 84.168C105.195 83.288 105.811 82.848 107.043 82.848C107.395 82.848 108.011 82.8773 108.891 82.936C109.83 82.936 110.886 82.936 112.059 82.936C113.819 82.936 115.755 82.936 117.867 82.936C120.038 82.8773 122.091 82.848 124.027 82.848C125.963 82.7893 127.547 82.76 128.779 82.76C130.07 82.7013 130.715 82.672 130.715 82.672C130.95 82.7307 131.038 82.8773 130.979 83.112C130.979 83.3467 130.921 83.552 130.803 83.728C130.158 83.728 129.425 83.7573 128.603 83.816C127.841 83.816 127.019 84.168 126.139 84.872C125.318 85.5173 124.467 86.8373 123.587 88.832C122.297 91.7653 121.035 94.992 119.803 98.512C118.63 102.032 117.31 105.523 115.843 108.984C114.435 112.504 112.705 115.701 110.651 118.576C108.598 121.509 106.075 123.827 103.083 125.528C102.086 126.115 100.942 126.584 99.6515 126.936C98.3608 127.288 97.0701 127.464 95.7795 127.464ZM139.564 104.144C138.801 104.144 138.009 103.997 137.188 103.704C136.366 103.411 135.516 102.941 134.636 102.296C133.286 101.24 132.201 99.8027 131.38 97.984C130.558 96.1653 129.972 94.3173 129.62 92.44C129.326 90.504 129.209 88.9493 129.268 87.776C129.326 87.4827 129.502 87.248 129.796 87.072C130.089 86.896 130.177 87.0427 130.06 87.512C130.236 89.096 130.588 90.856 131.116 92.792C131.702 94.6693 132.582 96.2827 133.756 97.632C134.988 98.9813 136.572 99.656 138.508 99.656C139.74 99.656 140.913 99.4213 142.028 98.952C143.201 98.424 144.286 97.544 145.284 96.312C146.809 94.4933 148.217 92.264 149.508 89.624C150.798 86.9253 151.942 84.2267 152.94 81.528L152.324 80.736C151.62 79.7387 150.681 79.3867 149.508 79.68C149.273 79.7387 149.39 79.5627 149.86 79.152C150.388 78.7413 150.974 78.3013 151.62 77.832C152.265 77.304 152.646 77.0107 152.764 76.952C153.116 76.952 153.585 77.304 154.172 78.008C154.817 76.1307 155.374 74.4293 155.844 72.904C156.372 71.3787 156.782 70.1467 157.076 69.208C157.252 68.68 157.545 67.8 157.956 66.568C158.366 65.336 158.572 64.4267 158.572 63.84C158.572 62.3733 158.689 61.288 158.924 60.584C157.105 60.5253 155.345 60.5547 153.644 60.672C152.001 60.7893 150.593 60.936 149.42 61.112C146.897 61.464 144.492 62.168 142.204 63.224C139.916 64.2213 138.038 65.4827 136.572 67.008C135.164 68.5333 134.46 70.2933 134.46 72.288C134.46 73.52 134.812 74.84 135.516 76.248C136.22 77.5973 137.393 79.0347 139.036 80.56C139.681 81.1467 140.297 81.704 140.884 82.232C141.529 82.76 142.086 83.2587 142.556 83.728C142.673 83.8453 142.644 83.992 142.468 84.168C142.35 84.2853 142.233 84.3147 142.116 84.256C141.529 83.904 140.678 83.376 139.564 82.672C138.449 81.968 137.305 81.0587 136.132 79.944C135.017 78.7707 134.049 77.4507 133.228 75.984C132.406 74.4587 131.996 72.728 131.996 70.792C131.996 68.328 132.788 66.304 134.372 64.72C136.014 63.136 138.097 61.904 140.62 61.024C143.201 60.0853 145.958 59.44 148.892 59.088C151.825 58.6773 154.582 58.472 157.164 58.472C157.692 58.472 158.19 58.472 158.66 58.472C159.188 58.472 159.686 58.5013 160.156 58.56L162.62 56.536C163.03 56.184 163.412 55.832 163.764 55.48C164.174 55.128 164.585 54.688 164.996 54.16C165.524 53.808 165.788 53.9253 165.788 54.512C165.788 54.9813 165.612 55.6267 165.26 56.448C164.966 57.2693 164.673 57.8267 164.38 58.12L163.588 58.824L166.316 59.176C171.126 59.7627 174.558 61.112 176.612 63.224C178.665 65.336 179.692 67.5947 179.692 70C179.692 71.9947 179.193 73.9013 178.196 75.72C177.198 77.48 175.878 79.0347 174.236 80.384C172.652 81.6747 170.892 82.7013 168.956 83.464C167.02 84.2267 165.113 84.608 163.236 84.608C162.473 84.608 161.681 84.5493 160.86 84.432C160.097 84.256 159.393 83.992 158.748 83.64C160.273 85.6347 161.886 87.776 163.588 90.064C165.348 92.352 167.049 94.4347 168.692 96.312C170.334 98.1307 171.801 99.4213 173.092 100.184C173.913 100.595 174.646 100.8 175.292 100.8C175.878 100.8 176.377 100.624 176.788 100.272C177.198 99.8613 177.404 99.1867 177.404 98.248C177.404 97.016 177.11 95.696 176.524 94.288C175.937 92.8213 175.321 91.5013 174.676 90.328C174.558 90.0933 174.5 89.9467 174.5 89.888C174.5 89.712 174.558 89.624 174.676 89.624C174.969 89.624 175.204 89.8 175.38 90.152C175.908 90.9147 176.406 91.824 176.876 92.88C177.345 93.8773 177.726 94.816 178.02 95.696C178.43 96.6933 178.636 97.6907 178.636 98.688C178.636 100.096 178.196 101.269 177.316 102.208C176.494 103.088 175.409 103.528 174.06 103.528C173.004 103.528 171.918 103.235 170.804 102.648C168.926 101.651 167.049 100.067 165.172 97.896C163.353 95.6667 161.534 93.232 159.716 90.592C157.956 87.952 156.166 85.488 154.348 83.2C153.116 86.6613 151.796 89.976 150.388 93.144C149.742 94.6693 148.892 96.312 147.836 98.072C146.838 99.7733 145.636 101.211 144.228 102.384C142.878 103.557 141.324 104.144 139.564 104.144ZM163.06 83.552C165.23 83.552 167.284 82.8773 169.22 81.528C171.214 80.1787 172.828 78.4773 174.06 76.424C175.292 74.3707 175.908 72.3173 175.908 70.264C175.849 68.2107 175.028 66.3333 173.444 64.632C171.86 62.9307 169.19 61.7573 165.436 61.112C164.966 60.9947 164.468 60.936 163.94 60.936C163.47 60.8773 162.972 60.8187 162.444 60.76L161.388 63.312C160.918 64.4853 160.42 65.8347 159.892 67.36C159.422 68.8267 158.836 70.4987 158.132 72.376C157.78 73.3147 157.398 74.4 156.988 75.632C156.577 76.864 156.108 78.184 155.58 79.592L156.9 81.264L157.252 81.44C158.19 82.2027 159.129 82.76 160.068 83.112C161.065 83.4053 162.062 83.552 163.06 83.552Z" fill="white"/>
</svg>
